<svg width="426" height="460" viewBox="0 0 426 460" fill="none" xmlns="http://www.w3.org/2000/svg">
<path d="M33.6009 364.005V207.205C33.6009 188.725 48.7219 173.603 67.2029 173.603H324.803L324.799 11.2029C324.799 5.0427 319.76 0.00390244 313.6 0.00390244L112 0V78.398C112 96.878 96.879 112 78.398 112H0V448C0 454.16 5.03909 459.199 11.199 459.199H313.599C319.759 459.199 324.798 454.16 324.798 448V397.602H67.198C48.721 397.602 33.6 382.481 33.6 364L33.6009 364.005ZM156.801 89.6049H280.001C286.161 89.6049 291.2 94.644 291.2 100.804C291.2 106.964 286.161 112.003 280.001 112.003H156.801C150.641 112.003 145.602 106.964 145.602 100.804C145.602 94.6437 150.641 89.6049 156.801 89.6049ZM78.4029 89.6049H15.6799L89.6019 15.6829V78.4059C89.6019 84.5661 84.5628 89.6049 78.4029 89.6049ZM414.403 196.005H67.2029C61.0427 196.005 56.0039 201.044 56.0039 207.204V364.004C56.0039 370.164 61.043 375.203 67.2029 375.203H414.403C420.563 375.203 425.602 370.164 425.602 364.004L425.606 207.204C425.606 201.044 420.567 196.001 414.407 196.001L414.403 196.005ZM168.003 296.805C168.003 321.446 147.843 341.606 123.202 341.606H100.804C94.6437 341.606 89.6049 336.567 89.6049 330.407V240.805C89.6049 234.645 94.644 229.606 100.804 229.606H123.202C147.843 229.606 168.003 249.766 168.003 274.407V296.805ZM280.003 302.406C280.003 324.246 262.644 341.606 240.804 341.606C218.964 341.606 201.605 324.246 201.605 302.406V268.805C201.605 246.965 218.964 229.606 240.804 229.606C262.644 229.606 280.003 246.965 280.003 268.805V302.406ZM352.804 319.208C359.523 319.208 365.683 315.286 368.484 309.13C370.164 304.649 374.644 302.411 378.562 302.411C380.242 302.411 381.363 302.411 383.042 303.532C388.644 305.77 391.441 312.493 388.644 318.091C382.484 332.087 368.484 341.607 352.804 341.607C330.964 341.607 313.605 324.248 313.605 302.408V268.806C313.605 246.966 330.964 229.607 352.804 229.607C368.484 229.607 382.484 238.568 388.644 253.127C390.882 258.728 388.644 265.447 383.042 267.686C381.363 268.807 379.683 268.807 378.566 268.807C374.085 268.807 370.167 266.006 368.488 262.088C365.683 255.928 359.523 252.006 352.804 252.006C343.284 252.006 336.003 259.287 336.003 268.807V302.409C336.003 311.37 343.284 319.21 352.804 319.21L352.804 319.208ZM145.604 274.406V296.805C145.604 309.125 135.526 319.203 123.206 319.203H112.007L112.003 252.003H123.202C135.522 252.003 145.604 262.086 145.604 274.406L145.604 274.406ZM257.604 268.805V302.407C257.604 311.368 250.323 319.208 240.803 319.208C231.283 319.208 224.002 311.368 224.002 302.407V268.805C224.002 259.285 231.283 252.004 240.803 252.004C250.323 252.004 257.604 259.285 257.604 268.805Z" fill="#1AA0FA"/>
</svg>
