<svg width="538" height="538" viewBox="0 0 538 538" fill="none" xmlns="http://www.w3.org/2000/svg">
<path d="M487.203 151.201H50.403C37.036 151.201 24.215 156.513 14.762 165.963C5.3128 175.416 0 188.236 0 201.604V386.404C0 399.771 5.3125 412.588 14.762 422.041C24.2151 431.494 37.035 436.803 50.403 436.803H84.005V487.201H84.0011C84.0011 500.568 89.3136 513.389 98.7631 522.842C108.216 532.291 121.036 537.604 134.404 537.604H403.204C416.571 537.604 429.392 532.292 438.845 522.842C448.294 513.389 453.607 500.569 453.607 487.201V436.803H487.209H487.205C500.572 436.803 513.393 431.494 522.846 422.041C532.295 412.588 537.608 399.771 537.608 386.404V201.604C537.608 188.237 532.296 175.416 522.846 165.963C513.393 156.514 500.573 151.201 487.205 151.201H487.203ZM386.403 470.401H151.203V352.801H386.403V470.401ZM420.005 100.801H117.605V50.403C117.605 37.036 122.914 24.215 132.367 14.762C141.816 5.3128 154.637 0 168.004 0H369.604C382.971 0 395.792 5.3125 405.241 14.762C414.694 24.2151 420.003 37.035 420.003 50.403L420.005 100.801Z" fill="#575757"/>
</svg>
