<svg width="481" height="558" viewBox="0 0 481 558" fill="none" xmlns="http://www.w3.org/2000/svg">
<path d="M10.8427 306.397C18.9404 305.022 30.3157 303.983 46.3347 303.983C62.5297 303.983 74.0767 307.085 81.8267 313.284C89.2369 319.143 94.2327 328.788 94.2327 340.159C94.2327 351.534 90.4436 361.182 83.5487 367.729C74.5878 376.17 61.3217 379.967 45.8147 379.967C42.3694 379.967 39.2678 379.791 36.8538 379.447V420.97H10.8418L10.8427 306.397ZM36.8627 359.12C39.101 359.64 41.8588 359.807 45.6518 359.807C59.6088 359.807 68.2258 352.745 68.2258 340.855C68.2258 330.175 60.8156 323.803 47.7218 323.803C42.382 323.803 38.7609 324.323 36.8668 324.831L36.8627 359.12Z" fill="#8A0506"/>
<path d="M110.963 306.397C120.611 304.842 133.19 303.983 146.455 303.983C168.51 303.983 182.81 307.944 194.014 316.385C206.076 325.338 213.655 339.651 213.655 360.147C213.655 382.37 205.557 397.706 194.358 407.186C182.124 417.35 163.518 422.178 140.772 422.178C127.159 422.178 117.51 421.315 110.967 420.451L110.963 306.397ZM137.326 401.159C139.564 401.675 143.185 401.675 146.459 401.675C170.236 401.854 185.744 388.753 185.744 361.015C185.916 336.898 171.787 324.14 149.217 324.14C143.357 324.14 139.568 324.663 137.326 325.171L137.326 401.159Z" fill="#8A0506"/>
<path d="M230.883 304.847H301.867V326.386H257.242V352.921H298.937V374.284H257.242V420.975H230.879L230.883 304.847Z" fill="#8A0506"/>
<path d="M319.283 127.657H402.974C377.865 92.4029 328.728 36.5359 300.934 12.1069V106.591C300.926 118.204 309.16 127.653 319.286 127.653L319.283 127.657Z" fill="#8A0506"/>
<path d="M418.703 229.547V157.594H319.281C294.777 157.594 274.832 134.715 274.832 106.59V0H31.402C14.058 0 0 16.133 0 36.039V146.959H0.0664062V252.519H457.766V468.729H0.0664062V522.967C0.753906 542.166 14.4964 557.502 31.4024 557.502H387.312C404.656 557.502 418.71 541.365 418.71 521.463V491.701H480.745L480.749 229.551L418.703 229.547Z" fill="#8A0506"/>
</svg>
